<?xml version="1.0" standalone="no"?><!DOCTYPE svg PUBLIC "-//W3C//DTD SVG 1.1//EN" "http://www.w3.org/Graphics/SVG/1.1/DTD/svg11.dtd"><svg t="1642489086648" class="icon" viewBox="0 0 1024 1024" version="1.1" xmlns="http://www.w3.org/2000/svg" p-id="4285" xmlns:xlink="http://www.w3.org/1999/xlink" width="200" height="200"><defs><style type="text/css"></style></defs><path d="M893.44 919.04c-20.48 2.56-38.4-12.8-38.4-30.72v-148.48c0-38.4-25.6-38.4-35.84-38.4-25.6 0-43.52 17.92-46.08 43.52V883.2c0 20.48-17.92 38.4-40.96 38.4-20.48 0-35.84-17.92-38.4-38.4v-212.48c-2.56-20.48 12.8-35.84 33.28-38.4h5.12c15.36 0 28.16 7.68 35.84 20.48 17.92-12.8 40.96-20.48 64-20.48 61.44 0 99.84 38.4 99.84 102.4v148.48c0 10.24-2.56 20.48-10.24 28.16-7.68 2.56-17.92 7.68-28.16 7.68z m-268.8-10.24h-153.6c-48.64 0-71.68-20.48-71.68-69.12v-217.6c0-48.64 23.04-69.12 71.68-69.12h148.48c20.48 0 38.4 15.36 38.4 35.84 0 20.48-17.92 35.84-38.4 35.84h-138.24V691.2h120.32c17.92-2.56 35.84 12.8 38.4 30.72v5.12c0 17.92-12.8 35.84-33.28 35.84h-125.44V834.56h145.92c20.48 0 35.84 12.8 38.4 33.28v5.12c2.56 17.92-12.8 35.84-30.72 38.4-5.12-2.56-7.68-2.56-10.24-2.56zM299.52 478.72c-20.48 2.56-38.4-10.24-40.96-30.72v-97.28H158.72c-53.76 0-76.8-23.04-76.8-76.8V166.4c0-51.2 23.04-74.24 76.8-74.24H256V56.32c-2.56-20.48 12.8-35.84 33.28-38.4h7.68c35.84 0 40.96 20.48 40.96 38.4v35.84h99.84c53.76 0 76.8 23.04 76.8 74.24v107.52c0 51.2-23.04 76.8-76.8 76.8h-99.84v89.6c2.56 20.48-12.8 38.4-33.28 38.4h-5.12z m-128-309.76c-7.68 0-7.68 0-7.68 7.68v89.6c0 7.68 0 7.68 7.68 7.68H256V168.96H171.52z m166.4 104.96h87.04c7.68 0 7.68 0 7.68-7.68V176.64c0-7.68 0-7.68-7.68-7.68h-87.04v104.96zM512 1024C227.84 1024 0 793.6 0 509.44c0-40.96 5.12-79.36 15.36-117.76 5.12-20.48 28.16-35.84 48.64-30.72 23.04 5.12 35.84 28.16 30.72 48.64-56.32 230.4 87.04 463.36 317.44 519.68 33.28 7.68 66.56 12.8 99.84 12.8 23.04 0 40.96 17.92 40.96 40.96 0 23.04-17.92 40.96-40.96 40.96z m455.68-353.28c-23.04 0-40.96-17.92-40.96-40.96v-10.24C985.6 389.12 844.8 153.6 614.4 94.72c-33.28-7.68-69.12-12.8-104.96-12.8-23.04 0-40.96-17.92-40.96-40.96 2.56-23.04 20.48-40.96 43.52-40.96 284.16 0 512 230.4 512 514.56 0 40.96-5.12 84.48-15.36 125.44-5.12 17.92-20.48 30.72-40.96 30.72z m0 0" p-id="4286"></path></svg>